
<svg width="80" height="80" viewBox="0 0 80 80" xmlns="http://www.w3.org/2000/svg">
  <g fill="none" fill-rule="evenodd">
    <g fill="#FAC917" fill-opacity="0.2">
      <path d="M14 16H9.33333333v-5.66666667H14V16zm-.66666667-6h-4V5.33333333h4v4.66666667h-.00000025zM6.66666667 16H2v8.6666667H6.66666667V16zM2 4.66666667h3.33333333v-.33333334H2V4v.66666667z"/>
    </g>
    <g transform="translate(20 20)" fill="#FAC917" fill-opacity="0.2">
      <path d="M14 16H9.33333333v-5.66666667H14V16zm-.66666667-6h-4V5.33333333h4v4.66666667h-.00000025zM6.66666667 16H2v8.6666667H6.66666667V16zM2 4.66666667h3.33333333v-.33333334H2V4v.66666667z"/>
    </g>
    <g transform="translate(40 40)" fill="#FAC917" fill-opacity="0.2">
      <path d="M14 16H9.33333333v-5.66666667H14V16zm-.66666667-6h-4V5.33333333h4v4.66666667h-.00000025zM6.66666667 16H2v8.6666667H6.66666667V16zM2 4.66666667h3.33333333v-.33333334H2V4v.66666667z"/>
    </g>
    <g transform="translate(60 0)" fill="#FAC917" fill-opacity="0.2">
      <path d="M14 16H9.33333333v-5.66666667H14V16zm-.66666667-6h-4V5.33333333h4v4.66666667h-.00000025zM6.66666667 16H2v8.6666667H6.66666667V16zM2 4.66666667h3.33333333v-.33333334H2V4v.66666667z"/>
    </g>
    <g transform="translate(0 60)" fill="#FAC917" fill-opacity="0.2">
      <path d="M14 16H9.33333333v-5.66666667H14V16zm-.66666667-6h-4V5.33333333h4v4.66666667h-.00000025zM6.66666667 16H2v8.6666667H6.66666667V16zM2 4.66666667h3.33333333v-.33333334H2V4v.66666667z"/>
    </g>
  </g>
</svg>
